<svg width="48" height="48" version="1.1" viewBox="0 0 12.7 12.7" xmlns="http://www.w3.org/2000/svg">
 <g>
  <g transform="matrix(.49129 0 0 .49129 3.58 6.7208)" aria-label="D">
   <path d="m10.787 8.1542q0 0.25838 0.12402 0.34106 0.12919 0.082682 0.5271 0.082682 1.2402 0 2.0412-0.49092 1.2299-0.75447 1.2299-2.5786 0-1.6278-1.0129-2.4495-0.86816-0.7028-2.2996-0.7028-0.35657 0-0.48576 0.077514-0.12402 0.077514-0.12402 0.34106zm-2.005 0.62528q0.57877-0.062012 0.75447-0.20671 0.1757-0.14986 0.1757-0.74931v-4.7077q0-0.57877-0.17053-0.74414-0.17053-0.16536-0.75964-0.20671v-0.19637h2.8525q1.4418 0 2.4391 0.47542 1.7983 0.85266 1.7983 3.0489 0 0.79065-0.32556 1.5038-0.32039 0.71313-0.97151 1.2041-0.41341 0.31006-0.85783 0.47025-0.81132 0.29972-1.9947 0.29972h-2.9404z" stroke-width=".53855"/>
  </g>
  <path d="m2.2843 5.201q0.29643-0.013982 0.38872-0.10906 0.095082-0.097878 0.095082-0.40829v-1.7954h-0.4782v-0.18737h0.4782q0-0.44185 0.12025-0.74667 0.22931-0.58447 0.84175-0.58447 0.24609 0 0.43905 0.097878 0.19576 0.097878 0.19576 0.26287 0 0.092285-0.067116 0.16499-0.067116 0.072709-0.1622 0.072709-0.0811 0-0.13983-0.047541-0.058727-0.050337-0.13983-0.17338l-0.047541-0.072709q-0.039151-0.058727-0.092285-0.097878-0.053134-0.041948-0.14822-0.041948-0.21254 0-0.28804 0.20974-0.041948 0.11186-0.041948 0.29363v0.66277h0.70193v0.18737h-0.69633v1.7954q0 0.31601 0.083896 0.40549 0.086692 0.086692 0.44744 0.11186v0.078303h-1.4905z"/>
  <g transform="matrix(1.3529 0 0 1.3529 -1.0931 -2.6215)" aria-label="s">
   <path d="m7.1126 4.701h0.068213q0.047542 0.23564 0.12816 0.36173 0.14469 0.23151 0.42375 0.23151 0.15503 0 0.24391-0.084749 0.09095-0.086816 0.09095-0.22324 0-0.086816-0.051676-0.16743-0.051677-0.080615-0.1819-0.1571l-0.23151-0.13229q-0.25425-0.13643-0.37414-0.27492-0.11989-0.13849-0.11989-0.32659 0-0.23151 0.16536-0.38034t0.41548-0.14883q0.10955 0 0.23978 0.041341 0.13229 0.041341 0.14883 0.041341 0.037207 0 0.053743-0.010335t0.028939-0.033073h0.049609l0.014469 0.57671h-0.064078q-0.041341-0.2005-0.11162-0.31213-0.12816-0.20671-0.37-0.20671-0.14469 0-0.22738 0.088883-0.082682 0.088883-0.082682 0.20877 0 0.19017 0.28525 0.339l0.27285 0.14676q0.44028 0.23978 0.44028 0.5581 0 0.24391-0.18397 0.39894-0.1819 0.15503-0.47749 0.15503-0.12402 0-0.28112-0.041341-0.1571-0.041341-0.18604-0.041341-0.024805 0-0.043408 0.018604-0.018604 0.016536-0.028939 0.041341h-0.053743z" stroke-width=".19557"/>
  </g>
  <g transform="matrix(1.131 0 0 1.131 -2.8973 1.1692)" aria-label="m">
   <path d="m3.8942 8.1695q0.16123-0.014469 0.21497-0.053743 0.082682-0.059945 0.082682-0.23978v-1.0687q0-0.15296-0.041341-0.2005-0.039274-0.047542-0.13229-0.047542-0.043408 0-0.066146 0.00413-0.020671 0.00413-0.049609 0.014469v-0.072347l0.14883-0.049609q0.080615-0.026872 0.26458-0.097152 0.18397-0.07028 0.1943-0.07028 0.010335 0 0.012402 0.010335 0.00207 0.010335 0.00207 0.039274v0.27905q0.20464-0.18604 0.35347-0.25631 0.14883-0.072347 0.30592-0.072347 0.21291 0 0.339 0.14469 0.066146 0.078548 0.10955 0.21291 0.15296-0.15502 0.26665-0.22944 0.19637-0.12816 0.40101-0.12816 0.3328 0 0.44442 0.27078 0.064079 0.15296 0.064079 0.48369v0.85783q0 0.14676 0.064079 0.2005 0.066146 0.051676 0.23564 0.068213v0.053743h-0.93224v-0.057877q0.17983-0.016536 0.23564-0.072347 0.057878-0.05581 0.057878-0.22738v-0.8909q0-0.2005-0.043408-0.29559-0.076481-0.1695-0.29972-0.1695-0.13436 0-0.26665 0.088883-0.076481 0.051676-0.1881 0.16536v1.0583q0 0.16743 0.057878 0.25425 0.059945 0.086816 0.25011 0.093018v0.053743h-0.94878v-0.053743q0.19637-0.024805 0.25011-0.095085 0.053743-0.07028 0.053743-0.3452v-0.57878q0-0.31833-0.041341-0.43822-0.068213-0.20257-0.28939-0.20257-0.12609 0-0.24805 0.07028-0.12196 0.068213-0.21497 0.17983v1.1307q0 0.1571 0.053744 0.21704 0.05581 0.059945 0.23978 0.062012v0.053743h-0.94051z" stroke-width=".23394"/>
  </g>
  <path d="m6.8544 3.3246-0.49723 0.28708v-0.57415z" stop-color="#000000" stroke="#000" stroke-linecap="round" stroke-width=".1"/>
  <path d="m6.8544 9.3714-0.49723 0.28708v-0.57415z" stop-color="#000000" stroke="#000" stroke-linecap="round" stroke-width=".1"/>
 </g>
 <g fill-opacity="0" stroke="#000" stroke-linecap="round" stroke-linejoin="round" stroke-miterlimit="5.85" stroke-width=".1">
  <circle cx="3.3246" cy="3.3246" r="2.42" stop-color="#000000" style="font-variation-settings:normal"/>
  <circle cx="9.3754" cy="3.3246" r="2.42" stop-color="#000000" style="font-variation-settings:normal"/>
  <circle cx="9.3754" cy="9.3754" r="2.42" stop-color="#000000" style="font-variation-settings:normal"/>
  <circle cx="3.3246" cy="9.3754" r="2.42" stop-color="#000000" style="font-variation-settings:normal"/>
 </g>
 <g fill="none" stroke="#000" stroke-width=".15">
  <path d="m5.7446 3.3246h0.6121"/>
  <path d="m7.7082 5.145-2.233 2.0818"/>
  <path d="m5.7446 9.3754h0.62902"/>
 </g>
 <path transform="rotate(135 5.9432 7.5856)" d="m6.5324 8.1792-0.49723 0.28708v-0.57415z" stop-color="#000000" stroke="#000" stroke-linecap="round" stroke-width=".1"/>
</svg>
