<svg width="48" height="48" version="1.1" viewBox="0 0 12.7 12.7" xmlns="http://www.w3.org/2000/svg">
 <path d="m1.589 5.295q0.37665-0.017766 0.49391-0.13857 0.12081-0.12436 0.12081-0.51878v-2.2812h-0.6076v-0.23807h0.6076q0-0.56142 0.15279-0.94872 0.29136-0.74263 1.0695-0.74263 0.31268 0 0.55786 0.12436 0.24873 0.12436 0.24873 0.334 0 0.11726-0.085277 0.20964-0.085279 0.092384-0.20609 0.092384-0.10305 0-0.17767-0.060405-0.074619-0.063959-0.17767-0.2203l-0.060406-0.092384q-0.049746-0.074619-0.11726-0.12436-0.067512-0.053299-0.18833-0.053299-0.27005 0-0.36599 0.2665-0.0533 0.14213-0.0533 0.37309v0.84212h0.89188v0.23807h-0.88476v2.2812q0 0.40152 0.1066 0.51522 0.11015 0.11015 0.56852 0.14213v0.099492h-1.8938z"/>
 <g transform="matrix(2.1642 0 0 2.1642 -6.9568 -6.6008)" stroke-width=".62514" aria-label="s">
  <path d="m7.1126 4.701h0.068213q0.047542 0.23564 0.12816 0.36173 0.14469 0.23151 0.42375 0.23151 0.15503 0 0.24391-0.084749 0.09095-0.086816 0.09095-0.22324 0-0.086816-0.051676-0.16743-0.051677-0.080615-0.1819-0.1571l-0.23151-0.13229q-0.25425-0.13643-0.37414-0.27492t-0.11989-0.32659q0-0.23151 0.16536-0.38034t0.41548-0.14883q0.10955 0 0.23978 0.041341 0.13229 0.041341 0.14883 0.041341 0.037207 0 0.053743-0.010335t0.028939-0.033073h0.049609l0.014469 0.57671h-0.064078q-0.041341-0.2005-0.11162-0.31213-0.12816-0.20671-0.37-0.20671-0.14469 0-0.22738 0.088883-0.082682 0.088883-0.082682 0.20877 0 0.19017 0.28525 0.339l0.27285 0.14676q0.44028 0.23978 0.44028 0.5581 0 0.24391-0.18397 0.39894-0.1819 0.15503-0.47749 0.15503-0.12402 0-0.28112-0.041341t-0.18604-0.041341q-0.024805 0-0.043408 0.018604-0.018604 0.016536-0.028939 0.041341h-0.053743z" stroke-width=".12226"/>
 </g>
 <g transform="matrix(1.5111 0 0 1.5111 -5.402 -1.1749)" stroke-width=".74846" aria-label="m">
  <path d="m3.8942 8.1695q0.16123-0.014469 0.21497-0.053743 0.082682-0.059945 0.082682-0.23978v-1.0687q0-0.15296-0.041341-0.2005-0.039274-0.047542-0.13229-0.047542-0.043408 0-0.066146 0.00413-0.020671 0.00413-0.049609 0.014469v-0.072347l0.14883-0.049609q0.080615-0.026872 0.26458-0.097152 0.18397-0.07028 0.1943-0.07028 0.010335 0 0.012402 0.010335 0.00207 0.010335 0.00207 0.039274v0.27905q0.20464-0.18604 0.35347-0.25631 0.14883-0.072347 0.30592-0.072347 0.21291 0 0.339 0.14469 0.066146 0.078548 0.10955 0.21291 0.15296-0.15502 0.26665-0.22944 0.19637-0.12816 0.40101-0.12816 0.3328 0 0.44442 0.27078 0.064079 0.15296 0.064079 0.48369v0.85783q0 0.14676 0.064079 0.2005 0.066146 0.051676 0.23564 0.068213v0.053743h-0.93224v-0.057877q0.17983-0.016536 0.23564-0.072347 0.057878-0.05581 0.057878-0.22738v-0.8909q0-0.2005-0.043408-0.29559-0.076481-0.1695-0.29972-0.1695-0.13436 0-0.26665 0.088883-0.076481 0.051676-0.1881 0.16536v1.0583q0 0.16743 0.057878 0.25425 0.059945 0.086816 0.25011 0.093018v0.053743h-0.94878v-0.053743q0.19637-0.024805 0.25011-0.095085 0.053743-0.07028 0.053743-0.3452v-0.57878q0-0.31833-0.041341-0.43822-0.068213-0.20257-0.28939-0.20257-0.12609 0-0.24805 0.07028-0.12196 0.068213-0.21497 0.17983v1.1307q0 0.1571 0.053744 0.21704 0.05581 0.059945 0.23978 0.062012v0.053743h-0.94051z" stroke-width=".1751"/>
 </g>
 <g stroke="#000">
  <g stroke-linecap="round">
   <path d="m6.9234 2.9109-0.56523 0.32634v-0.65267z" stop-color="#000000" stroke-width=".1"/>
   <path d="m6.9234 9.7846-0.56523 0.32634v-0.65267z" stop-color="#000000" stroke-width=".1"/>
   <g transform="matrix(1.1368 0 0 1.1368 -.8684 -.8684)" fill-opacity="0" stroke-linejoin="round" stroke-miterlimit="5.85" stroke-width=".21693">
    <circle cx="3.3246" cy="3.3246" r="2.42" stop-color="#000000" style="font-variation-settings:normal"/>
    <circle cx="9.3754" cy="3.3246" r="2.42" stop-color="#000000" style="font-variation-settings:normal"/>
    <circle cx="9.3754" cy="9.3754" r="2.42" stop-color="#000000" style="font-variation-settings:normal"/>
    <circle cx="3.3246" cy="9.3754" r="2.42" stop-color="#000000" style="font-variation-settings:normal"/>
   </g>
  </g>
  <g transform="matrix(1.1368 0 0 1.1368 -.8684 -.8684)" fill="none" stroke-width=".13195">
   <path d="m5.7446 3.3246h0.6121"/>
   <path d="m7.7082 5.145-2.233 2.0818"/>
   <path d="m5.7446 9.3754h0.62902"/>
  </g>
  <path d="m4.9368 7.751 0.16892-0.63043 0.46151 0.46151z" stop-color="#000000" stroke-linecap="round" stroke-width=".1"/>
 </g>
 <g transform="scale(.97978 1.0206)" aria-label="D">
  <path d="m8.2988 11.536v-0.10501h0.14474q0.24408 0 0.34625-0.1561 0.062438-0.09366 0.062438-0.42004v-2.4862q0-0.36044-0.079467-0.45126-0.11069-0.12488-0.32922-0.12488h-0.14474v-0.10501h1.5666q0.86278 0 1.3112 0.19583 0.45126 0.19583 0.72372 0.65276 0.2753 0.45693 0.2753 1.0558 0 0.80318-0.48815 1.3424-0.54775 0.60168-1.6688 0.60168zm1.0983-0.27813q0.36044 0.07947 0.60452 0.07947 0.65844 0 1.0927-0.46261 0.43423-0.46261 0.43423-1.2544 0-0.79751-0.43423-1.2573t-1.1154-0.45977q-0.25543 0-0.58181 0.082305z" stroke-width=".26458"/>
 </g>
</svg>
